<svg fill="#FFFFFF" xmlns="http://www.w3.org/2000/svg" xmlns:xlink="http://www.w3.org/1999/xlink" version="1.1" x="0px" y="0px" viewBox="0 0 100 100" enable-background="new 0 0 100 100" xml:space="preserve"><g><path fill="#FFFFFF" d="M43.9,87.2c1.4,0.6,2.8,1.1,4.3,1.6c-0.5,1.3-1,3.4,0.5,4.1c2.5,1.1,3.9-1.2,4.5-2.8   c2.4,0.5,4.8,0.8,7.1,0.9c-0.2,1.4-0.2,3.8,1.6,4c2.7,0.3,3.4-2.1,3.6-3.8c0.7,0,1.5,0,2.2,0c5.8-8.4,6.8-15.9,6.8-20   c-3.1-0.1-6.8-0.4-10.4-1.5C61.3,76.2,55.4,84.1,43.9,87.2z"></path><path fill="#FFFFFF" d="M56.9,66c-2.4-1.8-4.5-4.2-6.1-7.4c-3.9,3.2-11.4,7.5-23.6,7.9c0.1,0.7,0.3,1.3,0.5,1.9   c-1.6,0.7-3.7,1.9-3,4c0.8,2.3,3.2,1.8,4.8,1c0.9,2,2,3.7,3.3,5.3c-1.1,0.9-2.5,2.4-1.5,3.7c1.6,2.2,4,0.9,5.3-0.1   C41.8,80.5,52.2,75.7,56.9,66z"></path><path fill="#FFFFFF" d="M81.5,71.1c-0.1,9.5-2.2,15.6-4.5,19.4c1.6-0.2,2.9-0.4,3.6-0.5c7.1-0.9,12.3-3.8,12.3-9   C92.9,75.9,88.8,71.2,81.5,71.1z"></path><path fill="#FFFFFF" d="M26.3,56.9c0,0.8,0,1.5,0,2.2c6.4-0.7,16.2-2.8,22-9.3c-0.2-1.7-0.3-3.4-0.3-5.4c0-15.9-3.3-22.9-5.9-25.9   c-2.2-3.5-5.5-6.3-9.5-7.7V6.9c0-1.1-0.9-1.9-1.9-1.9h0c-1.1,0-1.9,0.9-1.9,1.9v2.9c-0.9-0.1-1.8-0.2-2.7-0.2c-2.1,0-4.1,0.3-5.9,1   V6.9c0-1.1-0.9-1.9-1.9-1.9c-1.1,0-1.9,0.9-1.9,1.9v5.4c-5.5,3.3-9.1,9.3-9.1,16.2c0,10.2,8.1,18.5,18.2,18.9   c0.2,1.2,0.4,2.4,0.5,3.5c-2.1,0.4-5.6,1.6-4.5,4.5c0.6,1.7,3.1,1.4,4.9,0.8C26.3,56.7,26.3,56.9,26.3,56.9z M15.2,26.6   c-1.1,0-1.9-1.5-1.9-3.2c0-1.8,0.9-3.2,1.9-3.2c1.1,0,1.9,1.5,1.9,3.2C17.1,25.1,16.2,26.6,15.2,26.6z M27.9,20.1   c1.1,0,1.9,1.5,1.9,3.2c0,1.8-0.9,3.2-1.9,3.2c-1.1,0-1.9-1.5-1.9-3.2C26,21.5,26.9,20.1,27.9,20.1z"></path></g></svg>