<svg fill="#FFFFFF" xmlns="http://www.w3.org/2000/svg" viewBox="0 0 74.58 88.31" x="0px" y="0px"><title>Asset 81</title><g data-name="Layer 2"><g data-name="little bird"><path d="M42.22,17.23c.92.19,1.43.33,1.95.39A4.66,4.66,0,0,1,48.11,21c.48,1.3.76,2.68,1.16,4.12,1.77-.55,2.5-2.38,4.1-3.16,0-.74.1-1.43.1-2.12a61.75,61.75,0,0,1,0-6.3c.25-2.5.47-5,1.78-7.33a5.94,5.94,0,0,1,2.23-2.44.79.79,0,0,1,.32,1.31c-1.71,2.28-1.62,4.93-1.64,7.56,0,1.92-.07,3.85,0,5.77a17.51,17.51,0,0,0,.51,2.82c.1.49.26,1,.41,1.51a46.15,46.15,0,0,0-3.86,2.8A53.76,53.76,0,0,0,48.77,30a5,5,0,0,0-.66,2c-.42,1.51-.61,3.08-1.61,4.41a2.58,2.58,0,0,0,0,3c.39.69.79,1.37,1.21,2a4.67,4.67,0,0,1,.89,2.14c.1,1,.61,1.26,1.67.88a12.39,12.39,0,0,1,4.34-.91,3.4,3.4,0,0,0,2.35-1l1.32-1.23,1-6.42a25,25,0,0,1,9.08-5.24,10.33,10.33,0,0,1,3.2,2.29,3.61,3.61,0,0,1-.91.54,1,1,0,0,1-.73-.23c-1.34-1.16-2.75-.8-4.19-.25a11.27,11.27,0,0,0-4.4,3.47L61,42.52l-6.17,4.13-.57,2.52,7.25,8.32,5.22,1.12a29,29,0,0,0,3.26,4,27,27,0,0,0,4.37,2.59l.17.86c-.19.08-.35.23-.5.21a8.86,8.86,0,0,1-6.21-3.45,5.34,5.34,0,0,0-3.49-2.16,3.42,3.42,0,0,0-1,.13,3.84,3.84,0,0,0,0,2.65c.4,1.79,1,3.54,1.5,5.31a15.48,15.48,0,0,1,.6,2.27A24.19,24.19,0,0,1,65,81.12a9.49,9.49,0,0,1-4.73,6c-.54.29-1,.67-1.6.91a2.45,2.45,0,0,1-1.26.25c-2.71-.39-5.34-.95-7.34-3.09-1.19-1.28-2.52-2.43-3.79-3.63-.44-.41-.89-.8-1.33-1.2-1.74.75-2.6,2.52-4.42,3a11.27,11.27,0,0,1-4.94.17,7.78,7.78,0,0,1-4.44-2.75c-.82.74-1.44,1.33-2.1,1.89C27.7,83.77,26.4,85,25,86c-2.75,2-6.21,2.68-10.23-.14A12.3,12.3,0,0,1,9.44,78a11,11,0,0,1-.17-3.38,50.09,50.09,0,0,1,1.09-6.47c.42-1.67,1.23-3.25,1.82-4.89a10.43,10.43,0,0,0,.26-1.81,7.21,7.21,0,0,0-1.56.81C10,63.11,9.16,64,8.34,64.94a4.91,4.91,0,0,1-2.4,1.49A39.19,39.19,0,0,0,2,68c-.63.26-.62.28-2,0-.26-.75.24-1.18.76-1.47A9.54,9.54,0,0,1,2.56,66a7,7,0,0,0,4.12-3.06,5.84,5.84,0,0,1,2.54-2.19c1.72-.85,3.35-1.88,5-2.87a3.37,3.37,0,0,0,1.2-1c1.71-2.87,4-5.31,5.85-8.07a9.32,9.32,0,0,0,.49-.94,3.22,3.22,0,0,0-3.59-1,3.23,3.23,0,0,1-1.39-2.43c-.58-3.91-1.93-7.62-2.92-11.42A2.51,2.51,0,0,0,12,31c-1.18-.34-2.34-.72-3.52-1a2.23,2.23,0,0,0-1.28-.14c-2,.83-4-.41-5.93.22-.37.12-.61-.21-.53-.8.78-.14,1.62-.22,2.44-.44a21.18,21.18,0,0,1,2.47-.85,8.92,8.92,0,0,1,3.38,0c2.19.58,4.32,1.42,6.46,2.17a9.89,9.89,0,0,1,1.22.64c.4,2,.78,3.93,1.2,5.89.39,1.79.81,3.58,1.25,5.37a2.11,2.11,0,0,0,2.3,1.73c1.38,0,2.77.63,4.07-.13l3.74-5.44c0-.22,0-.85-.27-1.21-1.72-2.12-2.08-4.81-3.1-7.21a4.34,4.34,0,0,0-1.32-2.19.66.66,0,0,1-.17-.2A49.48,49.48,0,0,1,20.73,19a2.55,2.55,0,0,1,.18-2,11.16,11.16,0,0,0,1-4.07,7.76,7.76,0,0,1,.42-1.78,12,12,0,0,0,.24-6.49c-.25-1-.4-2-.63-3.26L23.13,0c.22.18.41.25.46.38a15.77,15.77,0,0,1,.71,7.24,9.81,9.81,0,0,0,0,1.84,10.76,10.76,0,0,1-.86,5.91,2,2,0,0,0-.23,1,23.72,23.72,0,0,0,1.24,6.16,1.74,1.74,0,0,0,1.8,1.13,15.58,15.58,0,0,0,1.22-1.49c1.1-1.7,2.17-3.29,4.36-3.93,1.28-.38,1.76-1.86,2-3.18.25-1.11.47-2.22.7-3.32,1.57.27,1.62.31,1.72,1.46.07.77.12,1.54.19,2.41a8.82,8.82,0,0,0,2.57-2.94,3,3,0,0,1,.3-.71,1,1,0,0,1,.66-.35.8.8,0,0,1,.6.39c.19.48.26,1,.41,1.51C41.43,14.77,41.83,16,42.22,17.23Zm-5.9,64.63-2.06-.25c.08-.67-.33-.78-1.38-.86l1.43.82a2.88,2.88,0,0,0,2.1.25c.31.65.31.65,1,.47C37.06,82.13,36.7,82,36.32,81.85ZM41.8,56c.14-.59.26-1.18.41-1.76a1,1,0,0,0-.32-1.28,7,7,0,0,0-2.73.41,15,15,0,0,0,0,2.13A20.11,20.11,0,0,0,39.81,58c0,.1.28.13.55.24l1.5-2.38c-.19.75-.41,1.5-.58,2.25s-.36,1.66-.48,2.51a7,7,0,0,0-.09,2c.23,1.37.56,2.73.92,4.08a14.37,14.37,0,0,0,.74,1.81c.34-.07.58,0,.66-.15a9.39,9.39,0,0,0,2.4-5.11c.17-2.34.18-4.7.21-7.05a3.7,3.7,0,0,0-2.3-3.48c-.24.66-.43,1.32-.71,1.94A10.35,10.35,0,0,1,41.8,56Zm16.74,24.8c-1.06-2-2.17-3.95-3.15-6a3.45,3.45,0,0,0-2.58-2.16c-1.07,1.08-1,2.31-1.1,3.53-.07,1.65-.14,3.31-.36,4.95a2.13,2.13,0,0,0,.95,2.25c.5.35,1,.64,1.53,1a4.41,4.41,0,0,0,4.31.64c.67-1.38.26-2.88.34-4.32l1.1,2.6c1.6-.91,1.76-2.59,2.49-3.9A1.54,1.54,0,0,0,62,77.59c-1.2.31-2-.54-2.89-1.22-.57-.44-1-1.23-2-1-.35.75.08,1.35.31,2A9.65,9.65,0,0,1,58.54,80.79ZM16.73,83.52c0-.37-.11-.71,0-.93.63-1.25,1.27-2.5,2-3.7a5.94,5.94,0,0,0,.78-4.29,12,12,0,0,1,.13-5.21,9.48,9.48,0,0,0,0-2.15c-1.58.36-2.53,1.52-3.82,2s-2.73.58-4,1.46a12.52,12.52,0,0,1-.38,3.06,8.1,8.1,0,0,0,.09,5.64,7.4,7.4,0,0,0,6,5.28,9.21,9.21,0,0,0,8.91-3,11.81,11.81,0,0,1-.21-3,11,11,0,0,0-.6-5.67,3.32,3.32,0,0,1,.17-2.79,6.26,6.26,0,0,0,.45-4.34c-.3-1.72-.56-3.46-.84-5.19-.05-.33,0-.72-.66-.76-.72,1.22-1.49,2.47-2.21,3.76a23.26,23.26,0,0,0-1.55,3,14.64,14.64,0,0,0-.7,8A5.43,5.43,0,0,1,19.9,78c-.78,1.76-1.68,3.46-2.54,5.18C17.3,83.34,17.07,83.37,16.73,83.52ZM50.28,48.93a13.47,13.47,0,0,0-.24,2c.13,2.09.4,4.17.46,6.26.05,1.92.89,2.52,2.55,2.61,1,.06,2.09.18,3.14.25.65,0,1.29,0,2.16,0-1,1.86-2.78.3-3.91,1.31a8,8,0,0,0,2.34,5.52A5.92,5.92,0,0,0,61,68.64a1.47,1.47,0,0,0,1.56-1.16c-.87-2.32-1.74-4.88-2.79-7.36-1.41-3.32-3.24-6.36-6.44-8.32a7.84,7.84,0,0,1-1.13-1.08Zm12.47,20.8-2.61-.31a6.1,6.1,0,0,1-4.35-2.58,8.76,8.76,0,0,1-2-4.21,1.9,1.9,0,0,0-2.11-1.86h-.84a7.32,7.32,0,0,0-.25,1c-.41,3.5.94,6.52,2.69,9.38a3.23,3.23,0,0,0,2.49,1.75,2.39,2.39,0,0,1,1.51.9,26.63,26.63,0,0,0,2.84,2.3c1.33.92,2.58.33,2.81-1.28A12.11,12.11,0,0,0,62.76,69.73Zm-36.2-7.56a7.54,7.54,0,0,0-.06,1.46,19.07,19.07,0,0,0,.59,3.07q1.52,4.88,3.2,9.71a6.6,6.6,0,0,0,1.12,1.5,5.21,5.21,0,0,0,.7-1q1.38-4,2.7-7.95a2.65,2.65,0,0,0-.33-2.26,5.14,5.14,0,0,0-1.91-2.1c-1.23-.67-2.42-1.42-3.65-2.08A2.43,2.43,0,0,0,26.56,62.17Zm-14.06,6.6a2.14,2.14,0,0,0,2.1,0c.78-.39,1.54-.82,2.34-1.17,1.57-.69,3.35-1.1,3.74-3.18,0-.11.34-.13.43-.26.69-.89,1.4-1.76,2-2.71a6.94,6.94,0,0,0,1-4.83,5.61,5.61,0,0,0-1.39.08c-1.15.4-2.25.91-3.4,1.31-3.1,1.09-4.36,3.77-5.52,6.47A40.77,40.77,0,0,0,12.49,68.77Zm22.6-2.94a57.79,57.79,0,0,0,1.35-7.63,2.64,2.64,0,0,0-2.3-.86A5.1,5.1,0,0,1,30,55.39c-.41-.44-.85-.84-1.34-1.32l-2.2,1.17L26,58a2.3,2.3,0,0,0,1.18,2.65,48,48,0,0,0,4.87,2.52A5,5,0,0,1,35.1,65.83ZM46.29,76.08c1.34-.4,1.47-1.57,1.67-2.52.57-2.73,1-5.49,1.44-8.24a4.28,4.28,0,0,0-.2-1.79c-.59-2-1.24-4-1.9-6-.09-.27-.37-.48-.72-.9a5,5,0,0,0-.42,1.16c-.06,1.4-.14,2.8-.08,4.19A7.46,7.46,0,0,1,45.27,66c-.59,1.07-1.23,2.11-1.86,3.15a1.84,1.84,0,0,0-.1,2A37,37,0,0,0,46.29,76.08Zm3.77-9.24A6,6,0,0,0,49.57,68c-.32,3-.59,6.06-2.3,8.73a2,2,0,0,0-.08,1.48,6.18,6.18,0,0,0,.92,1.86,1.83,1.83,0,0,0,2.56.65,10.72,10.72,0,0,0,.21-2.3,13.47,13.47,0,0,1,.7-5.65C52.23,70.66,51.42,68.9,50.06,66.84ZM37.64,54c-2.41-1.56-4.41-3.29-7-4.5l-1,3.6c.55.8,1,1.55,1.54,2.23a3.15,3.15,0,0,0,3,1.23,23.84,23.84,0,0,1,2.81,0ZM27.45,27.46a14.25,14.25,0,0,0,2.2.77A2,2,0,0,0,31.1,28c1.44-1.26,2.76-2.65,2.83-4.74.06-1.86-.75-2.57-2.54-2.32a3.12,3.12,0,0,0-2,1.11C28.06,23.54,27.85,25.41,27.45,27.46ZM26.38,47.52c-.9-.48-1.41-.24-1.77.34-.86,1.39-2.17,2.4-2.91,4s-2,2.59-3,3.89a4.27,4.27,0,0,0-.35,1.14A15.72,15.72,0,0,0,20,56.53c1.16-.37,2.28-.86,3.45-1.16a2.5,2.5,0,0,0,2-2.36C25.78,51.21,26.09,49.42,26.38,47.52Zm19.93-22c.11-.79.16-1.31.25-1.82.31-1.76-.71-2.8-2-3.6-1-.62-2.76-.13-2.89.83-.26,1.83-.31,3.68,1,5.24a1.48,1.48,0,0,0,1.87.49A19.25,19.25,0,0,0,46.31,25.48Zm3.31,30.84c-.12-2.26-.22-4.16-.33-6.05a4.85,4.85,0,0,0-.11-1,8.16,8.16,0,0,0-.62-1.7,1.17,1.17,0,0,0-.83-.44c-.18,0-.48.26-.56.47a11.78,11.78,0,0,1-1,2.67c-.95,1.29-.58,2.5-.09,3.71C46.65,55.31,47.78,56,49.61,56.32ZM27,70.15a2.08,2.08,0,0,0-.55,2.56A7.94,7.94,0,0,1,27,76.28c0,1,0,2.08,0,3.12a5.6,5.6,0,0,0,.41,1.26,13.58,13.58,0,0,0,1.25-.76,2.22,2.22,0,0,0,.73-3,35.11,35.11,0,0,1-1.23-4.24A5.06,5.06,0,0,0,27,70.15Zm.16-21.88c0,1.53-.58,3-.41,4.64a2.25,2.25,0,0,0,2.44-1.64,23.81,23.81,0,0,0,1.06-3.75c0-.13-.13-.3-.24-.55ZM34.92,77.4V75c-1.18,1.17-1.17,1.18-1.28,2.42Zm5.43-4.72c-1.08,1.62.16,2,.65,3.06C41.36,74.5,40.86,73.8,40.35,72.69ZM35.94,70c.69-.11.65-.62.81-1,.05-.11-.18-.35-.28-.52-.13.08-.34.14-.37.25C36,69.12,36,69.52,35.94,70Zm1.39,5.21c.26-.23.51-.36.57-.55s-.18-.35-.29-.52c-.17.13-.44.22-.5.39S37.22,74.89,37.32,75.19Zm12-14.44a1.38,1.38,0,0,0-.05-2,3.13,3.13,0,0,0-.25.86A6.65,6.65,0,0,0,49.33,60.75Zm-7.78-8.81c-.12-.22-.19-.48-.28-.49a2.22,2.22,0,0,0-.66.13c.06.15.11.41.19.42A3.08,3.08,0,0,0,41.55,51.93ZM38.49,72.51l.25-.7c-.07,0-.18-.08-.22,0a.91.91,0,0,0-.3.36C38.21,72.19,38.36,72.32,38.49,72.51Zm.7,6.07-.38-.31c-.07.14-.21.3-.18.42s.22.2.35.29ZM33.88,18.83l.28.32c.09-.13.24-.26.25-.39s-.18-.21-.27-.32ZM42.25,35a1.82,1.82,0,0,0-.33-.24s-.21.09-.2.11a3,3,0,0,0,.17.38ZM35,33l-.2-.37-.38.21.29.48ZM8,29,7.75,29l0,.32c.08,0,.17,0,.22,0S8,29.12,8,29ZM38.9,76.65c.07.14.11.33.23.42s.25-.06.38-.1c-.06-.15-.08-.35-.19-.42S39,76.61,38.9,76.65Zm-24-45.51c-.06,0-.13-.08-.19-.07s-.1.09-.15.13l.33.1ZM36.41,47.59l-.05-.16c-.06,0-.14,0-.16.06s0,.11,0,.16Zm8.43,0-.2-.38c-.05.06-.16.13-.15.17a2.1,2.1,0,0,0,.17.37Zm-3.31-9.86a2.4,2.4,0,0,0,.17-.4s-.09-.12-.13-.18-.25.18-.25.26S41.46,37.59,41.53,37.69Zm-6.37,4.07a2.76,2.76,0,0,0,.17-.45s-.11-.11-.17-.17a2.44,2.44,0,0,0-.16.43S35.1,41.7,35.16,41.77ZM10.64,29.68c0-.06,0-.14-.05-.16a.52.52,0,0,0-.2,0l.08.3Zm34.23-1.52c0-.06,0-.18-.07-.18a.26.26,0,0,0-.21.07s0,.13.05.2ZM36.81,67.67a1.19,1.19,0,0,0,.16-.44c0-.09-.18-.16-.28-.25a1.12,1.12,0,0,0-.16.42C36.54,67.5,36.71,67.58,36.81,67.67Z"></path></g></g></svg>