<svg fill="#FFFFFF" xmlns="http://www.w3.org/2000/svg" xmlns:xlink="http://www.w3.org/1999/xlink" version="1.1" x="0px" y="0px" viewBox="0 0 90 90" style="enable-background:new 0 0 90 90;" xml:space="preserve"><style type="text/css">
	.st0{clip-path:url(#SVGID_2_);}
	.st1{fill:none;}
	.st2{fill:#FFFFFF;}
	.st3{fill:#FFFFFF;}
	.st4{fill:#FFFFFF;}
	.st5{clip-path:url(#SVGID_4_);}
	.st6{clip-path:url(#SVGID_6_);}
	.st7{fill:#FFFFFF;}
	.st8{fill:#FFFFFF;}
	.st9{fill:#FFFFFF;}
	.st10{fill:#FFFFFF;}
	.st11{clip-path:url(#SVGID_8_);}
	.st12{clip-path:url(#SVGID_10_);}
	.st13{fill:#FFFFFF;}
	.st14{fill:#FFFFFF;}
	.st15{fill:#FFFFFF;}
	.st16{clip-path:url(#SVGID_12_);}
	.st17{clip-path:url(#SVGID_14_);}
	.st18{clip-path:url(#SVGID_16_);}
	.st19{fill:#FFFFFF;}
	.st20{clip-path:url(#SVGID_18_);}
	.st21{clip-path:url(#SVGID_20_);}
	.st22{clip-path:url(#SVGID_22_);}
	.st23{fill:#FFFFFF;}
	.st24{fill:#FFFFFF;}
	.st25{fill:#FFFFFF;}
	.st26{fill:#FFFFFF;}
	.st27{fill:#FFFFFF;}
	.st28{fill:#FFFFFF;}
	.st29{fill:#FFFFFF;}
	.st30{fill:#FFFFFF;}
	.st31{fill:#FFFFFF;}
	.st32{fill:#FFFFFF;}
	.st33{fill:#FFFFFF;}
	.st34{fill:#FFFFFF;}
	.st35{fill:#FFFFFF;}
	.st36{fill:#FFFFFF;}
	.st37{fill:#FFFFFF;}
	.st38{fill:#FFFFFF;}
	.st39{fill:#FFFFFF;}
	.st40{fill:#FFFFFF;}
	.st41{fill:#FFFFFF;}
	.st42{fill:#FFFFFF;}
	.st43{fill:#FFFFFF;}
	.st44{fill:#FFFFFF;}
	.st45{fill:#FFFFFF;}
	.st46{fill:#FFFFFF;}
	.st47{fill:#FFFFFF;}
	.st48{fill:#FFFFFF;}
	.st49{fill:#FFFFFF;}
	.st50{fill:#FFFFFF;}
	.st51{fill:#FFFFFF;}
	.st52{fill:#FFFFFF;}
	.st53{fill:#FFFFFF;}
	.st54{fill:#FFFFFF;}
	.st55{fill:#FFFFFF;}
	.st56{fill:#FFFFFF;}
	.st57{fill:#FFFFFF;}
	.st58{fill:#FFFFFF;}
	.st59{fill:#FFFFFF;}
	.st60{fill:#FFFFFF;}
	.st61{fill:#FFFFFF;}
	.st62{fill:#FFFFFF;}
	.st63{fill:#FFFFFF;}
	.st64{fill:#FFFFFF;}
	.st65{fill:#FFFFFF;}
	.st66{fill:#FFFFFF;}
	.st67{fill:#FFFFFF;}
	.st68{fill:#FFFFFF;}
	.st69{fill:#FFFFFF;}
	.st70{fill:#FFFFFF;}
	.st71{fill:#FFFFFF;}
	.st72{fill:#FFFFFF;}
	.st73{fill:#FFFFFF;}
	.st74{fill:#FFFFFF;}
	.st75{fill:#FFFFFF;}
	.st76{fill:#FFFFFF;}
</style><g><path d="M56.3,15.2c-5.8,0-10.5,4.7-10.5,10.5c0,5.8,4.7,10.5,10.5,10.5c5.8,0,10.5-4.7,10.5-10.5C66.8,19.9,62.1,15.2,56.3,15.2z    M57.1,32.4c-3.6,0-6.6-2.9-6.6-6.6c0-3.6,2.9-6.6,6.6-6.6c1.7,0,3.2,0.6,4.4,1.7c-0.1,0-0.2,0-0.3,0c-1.4,0-2.5,1.1-2.5,2.5   c0,1.4,1.1,2.5,2.5,2.5c1,0,1.9-0.6,2.3-1.5c0.1,0.5,0.2,1,0.2,1.5C63.7,29.5,60.7,32.4,57.1,32.4z"></path><path d="M33.3,15.2c-5.8,0-10.5,4.7-10.5,10.5c0,5.8,4.7,10.5,10.5,10.5c5.8,0,10.5-4.7,10.5-10.5C43.8,19.9,39.1,15.2,33.3,15.2z    M33.2,32.4c-3.6,0-6.6-2.9-6.6-6.6s2.9-6.6,6.6-6.6c1.7,0,3.2,0.6,4.4,1.7c-0.1,0-0.2,0-0.3,0c-1.4,0-2.5,1.1-2.5,2.5   c0,1.4,1.1,2.5,2.5,2.5c1,0,1.9-0.6,2.3-1.5c0.1,0.5,0.2,1,0.2,1.5C39.8,29.5,36.8,32.4,33.2,32.4z"></path><path d="M78.2,47c0-1.7-0.2-3.2-0.5-4.6c-0.1-0.3-0.1-0.6-0.2-0.8c-0.1-0.3-0.2-0.7-0.4-1c-0.2-0.5-0.4-1-0.7-1.5   c-0.8-1.5-2-2.8-3.6-3.5C75,17.4,73.1,0,73.1,0c-10,7.7-19.2,10.6-27.1,11c-0.4,0-0.8,0-1.1,0c-0.4,0-0.9,0-1.3,0   C27.2,10.8,16.7,0,16.7,0c-1.4,14.5-1.3,26.3-0.3,35.8c-1.1,0.7-2,1.7-2.6,2.9c-0.3,0.5-0.5,1-0.7,1.5c-0.1,0.3-0.3,0.7-0.4,1   c-0.1,0.3-0.2,0.5-0.3,0.8c-0.4,1.4-0.6,3-0.6,4.6l0,0c-0.6,12.2,16,28.1,16,28.1c-2-2.5-2.5-6.4-2.5-10.3c3,4.5,6.3,7.2,9.4,8.9   c-3.7,1.7-2.5,12.5,3.3,8.9c-7.1,4.4,7.1,12.8,7,4.1c0.1,8.7,14.1,0,6.9-4.3c6,3.6,6.9-7.8,2.8-9c3.9-2.2,7.1-5.5,9.6-9.5   c0.1,4.2-0.5,8.6-2.7,11.3C61.6,74.7,78.5,59.1,78.2,47L78.2,47z M66.6,8.2l4-2.5l0.1,4.7l0.1,4.7l-4.1-2.2l-4.1-2.2L66.6,8.2z    M18.9,9.6L19,4.9l4,2.5l4,2.5l-4.1,2.2l-4.1,2.2L18.9,9.6z M19.8,25.7c0-7.9,6.9-14.3,15.3-14.3c3.7,0,7.2,1.2,9.8,3.3   c2.7-2.1,6.1-3.3,9.8-3.3c8.5,0,15.3,6.4,15.3,14.3c0,7.9-6.9,14.3-15.3,14.3c-3.7,0-7.2-1.2-9.8-3.3c-2.7,2.1-6.1,3.3-9.8,3.3   C26.6,40,19.8,33.6,19.8,25.7z M42.8,61.2c-0.1-0.2-0.2-0.4-0.3-0.7c0.4,0.2,0.7,0.5,1,0.6c0.3,0.2,0.6,0.3,0.9,0.3   c0.3,0,0.6-0.1,0.9-0.2c0.3-0.2,0.6-0.4,1-0.6c-0.1,0.3-0.2,0.5-0.3,0.7c-0.1,0.2-0.3,0.4-0.4,0.6c-0.2,0.2-0.4,0.3-0.6,0.4   c-0.2,0.1-0.4,0.1-0.7,0.1c-0.5,0-0.9-0.2-1.2-0.6C43.1,61.6,43,61.4,42.8,61.2z M43,66c-0.1,0.3-0.2,0.5-0.3,0.7   c-0.1,0.2-0.3,0.4-0.4,0.6c-0.2,0.2-0.4,0.3-0.6,0.4c-0.2,0.1-0.4,0.1-0.7,0.1c-0.5,0-0.9-0.2-1.2-0.6c-0.2-0.2-0.3-0.4-0.4-0.6   c-0.1-0.2-0.2-0.4-0.3-0.7c0.4,0.2,0.7,0.5,1,0.6c0.3,0.2,0.6,0.3,0.9,0.3c0.3,0,0.6-0.1,0.9-0.2C42.3,66.5,42.6,66.2,43,66z    M42.6,55.6c-0.1,0.2-0.3,0.4-0.4,0.6c-0.2,0.2-0.4,0.3-0.6,0.4c-0.2,0.1-0.4,0.1-0.7,0.1c-0.5,0-0.9-0.2-1.2-0.6   c-0.2-0.2-0.3-0.4-0.4-0.6c-0.1-0.2-0.2-0.4-0.3-0.7c0.4,0.2,0.7,0.5,1,0.6c0.3,0.2,0.6,0.3,0.9,0.3c0.3,0,0.6-0.1,0.9-0.2   c0.3-0.2,0.6-0.4,1-0.6C42.8,55.2,42.7,55.4,42.6,55.6z M46.5,65.9c0.4,0.3,0.7,0.5,1,0.7c0.3,0.2,0.6,0.3,0.9,0.3   c0.3,0,0.6-0.1,0.9-0.3c0.3-0.2,0.6-0.4,1-0.7c-0.1,0.3-0.2,0.5-0.3,0.8c-0.1,0.2-0.3,0.5-0.4,0.7c-0.2,0.2-0.4,0.3-0.6,0.5   c-0.2,0.1-0.4,0.2-0.7,0.2c-0.5,0-0.9-0.3-1.2-0.6c-0.2-0.2-0.3-0.4-0.4-0.6C46.7,66.4,46.6,66.2,46.5,65.9z M49.6,56.2   c-0.2-0.2-0.3-0.4-0.4-0.6c-0.1-0.2-0.2-0.5-0.3-0.8c0.4,0.3,0.7,0.5,1,0.7c0.3,0.2,0.6,0.3,0.9,0.3c0.3,0,0.6-0.1,0.9-0.3   c0.3-0.2,0.6-0.4,1-0.7c-0.1,0.3-0.2,0.5-0.3,0.8c-0.1,0.2-0.3,0.5-0.4,0.7c-0.2,0.2-0.4,0.3-0.6,0.5c-0.2,0.1-0.4,0.2-0.7,0.2   C50.4,56.9,50,56.6,49.6,56.2z M33.1,54.6c-0.2,0.2-0.4,0.3-0.6,0.4c-0.2,0.1-0.4,0.2-0.7,0.2c-0.2,0-0.5,0-0.7-0.1   c-0.4-0.2-0.8-0.5-1-0.9c-0.1-0.2-0.2-0.4-0.2-0.7c0-0.2-0.1-0.5,0-0.8c0.3,0.3,0.5,0.6,0.8,0.9c0.3,0.3,0.5,0.4,0.8,0.5   c0.3,0.1,0.6,0.1,0.9,0.1c0.4,0,0.7-0.2,1.2-0.3C33.4,54.2,33.3,54.4,33.1,54.6z M34.4,60c0-0.2-0.1-0.5,0-0.8   c0.3,0.3,0.5,0.6,0.8,0.9c0.3,0.3,0.5,0.4,0.8,0.5c0.3,0.1,0.6,0.1,0.9,0.1c0.4,0,0.7-0.2,1.2-0.3c-0.1,0.2-0.3,0.4-0.5,0.6   c-0.2,0.2-0.4,0.3-0.6,0.4c-0.2,0.1-0.4,0.2-0.7,0.2c-0.2,0-0.5,0-0.7-0.1c-0.4-0.2-0.8-0.5-1-0.9C34.5,60.5,34.4,60.2,34.4,60z    M55.1,60.6c-0.1,0.3-0.2,0.5-0.4,0.7c-0.1,0.2-0.3,0.4-0.5,0.5C54,61.9,53.8,62,53.5,62c-0.5,0-0.9-0.2-1.3-0.5   c-0.2-0.2-0.4-0.4-0.5-0.6c-0.1-0.2-0.3-0.5-0.4-0.7c0.4,0.2,0.7,0.4,1.1,0.6c0.3,0.1,0.7,0.2,1,0.2c0.3,0,0.6-0.1,0.9-0.3   c0.3-0.2,0.6-0.5,0.9-0.8C55.2,60.1,55.1,60.3,55.1,60.6z M60.9,54.4c-0.1,0.3-0.2,0.5-0.3,0.7c-0.1,0.2-0.3,0.4-0.5,0.6   c-0.2,0.1-0.4,0.2-0.6,0.3c-0.5,0.1-0.9-0.1-1.3-0.4c-0.2-0.1-0.4-0.3-0.6-0.5c-0.2-0.2-0.3-0.4-0.4-0.7c0.4,0.2,0.8,0.3,1.1,0.4   c0.4,0.1,0.7,0.1,1,0.1c0.3-0.1,0.6-0.2,0.8-0.4c0.3-0.2,0.5-0.6,0.8-0.9C61,53.8,61,54.1,60.9,54.4z"></path></g></svg>