<svg fill="#FFFFFF" xmlns="http://www.w3.org/2000/svg" xmlns:xlink="http://www.w3.org/1999/xlink" version="1.1" x="0px" y="0px" viewBox="0 0 100 100" enable-background="new 0 0 100 100" xml:space="preserve"><g display="none"><rect x="-27.879" y="-765.155" display="inline" fill="#FFFFFF" width="1286.936" height="912.422"></rect></g><g><path fill="#FFFFFF" d="M52.664,80.265v-4.38h-5.329v4.38c0.84-0.275,1.734-0.428,2.665-0.428   C50.93,79.838,51.825,79.991,52.664,80.265z"></path><path d="M79.987,74.88v-7.643c0-4.315-3.511-7.825-7.827-7.825h-7.5c-2.866-4.428-7.839-7.38-13.476-7.38h-2.368   c-5.638,0-10.61,2.952-13.476,7.38h-7.501c-4.315,0-7.826,3.51-7.826,7.825v7.643c-3.708,1.141-6.411,4.599-6.411,8.678   c0,3.066,1.537,5.901,4.113,7.582l2.913-4.463c-1.062-0.694-1.696-1.86-1.696-3.119c0-2.068,1.679-3.75,3.743-3.75   c2.068,0,3.749,1.683,3.749,3.75c0,1.26-0.634,2.427-1.696,3.12l2.914,4.461c2.574-1.681,4.112-4.515,4.112-7.581   c0-4.078-2.703-7.535-6.41-8.677v-7.645c0-1.377,1.12-2.497,2.497-2.497h5.282c-0.232,1.081-0.359,2.199-0.359,3.346v5.562h34.475   v-5.562c0-1.147-0.127-2.266-0.359-3.346h5.282c1.377,0,2.498,1.12,2.498,2.497v7.644c-3.708,1.142-6.411,4.599-6.411,8.677   c0,3.066,1.537,5.901,4.112,7.581l2.914-4.461c-1.062-0.694-1.696-1.861-1.696-3.12c0-2.068,1.682-3.75,3.749-3.75   c2.064,0,3.743,1.683,3.743,3.75c0,1.26-0.634,2.427-1.696,3.12l2.914,4.461c2.574-1.681,4.112-4.515,4.112-7.581   C86.398,79.479,83.695,76.021,79.987,74.88z M44.821,65.268h-3.309v-3.534h3.309V65.268z M51.655,65.268h-3.309v-3.534h3.309   V65.268z M58.488,65.268h-3.309v-3.534h3.309V65.268z"></path><path d="M72.23,19H55.06v-4.21h-3.53V11.5c1.12-0.56,1.91-1.72,1.91-3.06C53.44,6.54,51.9,5,50,5s-3.44,1.54-3.44,3.44   c0,1.34,0.79,2.5,1.91,3.06v3.29h-3.53V19H27.77c-1.6,0-2.91,1.31-2.91,2.91v25.57c0,1.6,1.31,2.91,2.91,2.91h44.46   c1.6,0,2.91-1.31,2.91-2.91V21.91C75.14,20.31,73.83,19,72.23,19z M68.47,33.95c0,1.53-1.26,2.79-2.79,2.79H34.32   c-1.53,0-2.79-1.26-2.79-2.79v-1.32c0-1.54,1.26-2.79,2.79-2.79h31.36c1.53,0,2.79,1.25,2.79,2.79V33.95z"></path><path d="M50,81.872c-3.625,0-6.564,2.939-6.564,6.564C43.436,92.061,46.375,95,50,95c3.625,0,6.564-2.939,6.564-6.564   C56.564,84.811,53.625,81.872,50,81.872z M50,90.363c-1.064,0-1.927-0.863-1.927-1.927c0-1.064,0.863-1.927,1.927-1.927   c1.064,0,1.927,0.863,1.927,1.927C51.927,89.5,51.064,90.363,50,90.363z"></path></g></svg>