<?xml version="1.0" standalone="no"?>
<!DOCTYPE svg PUBLIC "-//W3C//DTD SVG 20010904//EN"
 "http://www.w3.org/TR/2001/REC-SVG-20010904/DTD/svg10.dtd">
<svg version="1.0" xmlns="http://www.w3.org/2000/svg"
 width="16.000000pt" height="16.000000pt" viewBox="0 0 16.000000 16.000000"
 preserveAspectRatio="xMidYMid meet">
<metadata>
Created by potrace 1.11, written by Peter Selinger 2001-2013
</metadata>
<g transform="translate(0.000000,16.000000) scale(0.005229,-0.005229)"
fill="#000000" stroke="none">
<path d="M1345 3043 c-886 -115 -1487 -950 -1309 -1822 38 -186 119 -378 235
-551 80 -122 271 -314 394 -397 405 -273 890 -341 1351 -188 381 127 717 424
888 785 97 206 135 366 143 600 8 249 -22 422 -110 639 -105 259 -294 497
-523 660 -185 131 -436 233 -658 266 -94 14 -331 19 -411 8z m365 -515 c458
-77 830 -506 830 -959 l0 -79 -505 0 -505 0 0 40 0 40 471 0 471 0 -6 28 c-3
15 -8 52 -12 82 -10 86 -65 237 -118 327 -307 514 -1010 614 -1446 206 -155
-145 -248 -319 -285 -532 -36 -203 3 -426 106 -610 104 -185 281 -338 480
-417 74 -28 238 -64 298 -64 40 0 41 0 41 -36 l0 -37 -87 6 c-226 15 -459 124
-627 293 -123 123 -223 295 -267 460 -30 113 -37 319 -15 439 43 226 178 455
353 597 238 193 520 267 823 216z"/>
</g>
</svg>
